The supervillain Megamind finally conquers his nemesis, the hero Metro Man... but finds his life pointless without a hero to fight...
 
http://www.imdb.com/title/tt1001526/

Subs: Dutch, English (srt).


Wanneer de beruchte schurk Megamind per ongeluk zijn aartsrivaal Metro Man vermoord, verliest hij de zin van het leven. Zijn hele leven zat hij achter z'n vijand aan en de vijand achter hem. Nu dit domme ongelukje zijn leven veranderd heeft, creëert hij een nieuwe superheld genaamd Titan. Probleem is dat deze ook de nummer één schurk van de stad wil zijn. Hoe moet het nu?
 
http://www.moviemeter.nl/film/58240

Ondertitels: Engels, Nederlands (srt).

General
Complete name                    : Megamind-AC3-XviD-DVDRip 2010 TBS\Megamind-AC3-XviD-DVDRip 2010 TBS.avi
Format                           : AVI
Format/Info                      : Audio Video Interleave
File size                        : 1.46 GiB
Duration                         : 1h 35mn
Overall bit rate                 : 2 188 Kbps
Writing application              : VirtualDubMod 1.5.4.1 (build 2178/release)
Writing library                  : VirtualDubMod build 2178/release
Source                           : Megamind.DVDR-TWiZTED 

Video
ID                               : 0
Format                           : MPEG-4 Visual
Format profile                   : Simple@L3
Format settings, BVOP            : No
Format settings, QPel            : No
Format settings, GMC             : No warppoints
Format settings, Matrix          : Default (H.263)
Codec ID                         : XVID
Codec ID/Hint                    : XviD
Duration                         : 1h 35mn
Bit rate                         : 1 731 Kbps
Width                            : 720 pixels
Height                           : 304 pixels
Display aspect ratio             : 2.35:1
Frame rate                       : 23.976 fps
Resolution                       : 8 bits
Colorimetry                      : 4:2:0
Scan type                        : Progressive
Bits/(Pixel*Frame)               : 0.330
Stream size                      : 1.16 GiB (79%)
Writing library                  : XviD 1.1.2 (UTC 2006-11-01)

Audio
ID                               : 1
Format                           : AC-3
Format/Info                      : Audio Coding 3
Codec ID                         : 2000
Duration                         : 1h 35mn
Bit rate mode                    : Constant
Bit rate                         : 448 Kbps
Channel(s)                       : 6 channels
Channel positions                : Front: L C R, Surround: L R, LFE
Sampling rate                    : 48.0 KHz
Stream size                      : 306 MiB (20%)
Alignment                        : Split accross interleaves
Interleave, duration             : 42 ms (1.00 video frame)
Interleave, preload duration     : 500 ms

Thanks to SimplY ReleaseS TopperS for the Dutch subs.

Blackbeard  TBS.